<svg width="1920" height="1080" viewBox="0 0 1920 1080" fill="none" xmlns="http://www.w3.org/2000/svg">
<g clip-path="url(#clip0_2_15)">
<rect width="1920" height="1080" fill="#F4D9E7"/>
<path d="M1030.64 638.953H877.421C864.197 638.953 863.741 614.302 881.981 618.411C886.997 587.826 914.357 596.043 922.565 609.738C925.301 604.26 938.525 601.064 945.365 607.455C945.365 567.978 1011.52 579.162 1007.84 603.803C1023.34 601.977 1028.2 613.085 1028.81 618.411C1035.2 617.498 1042.49 621.15 1042.49 629.823C1042.49 638.497 1035.65 638.953 1030.64 638.953Z" fill="white" stroke="#42315C" stroke-width="2" stroke-linecap="round"/>
<path d="M943.558 658.5H799.027C786.553 658.5 786.123 635.272 803.329 639.143C808.06 610.323 833.869 618.066 841.612 630.97C844.193 625.809 856.667 622.797 863.12 628.819C869.142 577.631 925.922 606.882 922.05 625.378C936.675 623.657 941.264 634.125 941.837 639.143C947.859 638.283 954.742 641.724 954.742 649.897C954.742 658.07 948.29 658.5 943.558 658.5Z" fill="white" stroke="#42315C" stroke-width="2" stroke-linecap="round"/>
<circle cx="911.297" cy="589.676" r="27.8202" fill="#DDBEF5" stroke="#42315C" stroke-width="2"/>
<path d="M885.809 578.909C885.845 578.914 885.882 578.918 885.918 578.922C885.878 578.922 885.842 578.918 885.809 578.909C871.216 577.231 855.934 583.254 907.855 595.698C959.903 608.172 954.312 600.429 938.827 595.698C939.113 594.981 939.257 592.038 939.257 590.536C959.043 593.977 999.124 621.083 906.565 602.15C849.785 590.536 842.472 566.448 887.208 574.621C886.381 575.999 884.998 578.702 885.809 578.909Z" fill="white"/>
<path d="M885.918 578.922C871.292 577.201 855.804 583.223 907.855 595.698C959.903 608.172 954.312 600.429 938.827 595.698C939.113 594.981 939.257 592.038 939.257 590.536C959.043 593.977 999.124 621.083 906.565 602.15C849.785 590.536 842.472 566.448 887.208 574.621C886.348 576.054 884.886 578.922 885.918 578.922Z" stroke="#42315C" stroke-width="2" stroke-linecap="round"/>
<path d="M1783.64 113.568C1779.64 107.168 1773.31 110.901 1770.64 113.568C1766.81 109.735 1761.14 107.968 1757.14 113.568C1752.14 120.568 1764.81 130.068 1770.64 132.568C1776.64 128.901 1787.64 119.968 1783.64 113.568Z" fill="#B09DF5" stroke="#42315C" stroke-width="2" stroke-linecap="round"/>
<path d="M1592.64 429.568C1588.64 423.168 1582.31 426.901 1579.64 429.568C1575.81 425.735 1570.14 423.968 1566.14 429.568C1561.14 436.568 1573.81 446.068 1579.64 448.568C1585.64 444.901 1596.64 435.968 1592.64 429.568Z" fill="#B09DF5" stroke="#42315C" stroke-width="2" stroke-linecap="round"/>
<path d="M781.644 259.568C777.644 253.168 771.31 256.901 768.644 259.568C764.81 255.735 759.144 253.968 755.144 259.568C750.144 266.568 762.81 276.068 768.644 278.568C774.644 274.901 785.644 265.968 781.644 259.568Z" fill="#B09DF5" stroke="#42315C" stroke-width="2" stroke-linecap="round"/>
<path d="M106.644 60.568C102.644 54.168 96.3103 57.9013 93.6437 60.568C89.8103 56.7346 84.1435 54.9681 80.1436 60.5679C75.1436 67.5679 87.8103 77.068 93.6437 79.5679C99.6437 75.9013 110.644 66.968 106.644 60.568Z" fill="#B09DF5" stroke="#42315C" stroke-width="2" stroke-linecap="round"/>
<path d="M114.644 870.568C110.644 864.168 104.31 867.901 101.644 870.568C97.8103 866.735 92.1435 864.968 88.1436 870.568C83.1436 877.568 95.8103 887.068 101.644 889.568C107.644 885.901 118.644 876.968 114.644 870.568Z" fill="#B09DF5" stroke="#42315C" stroke-width="2" stroke-linecap="round"/>
<path d="M1665.64 991.568C1661.64 985.168 1655.31 988.901 1652.64 991.568C1648.81 987.735 1643.14 985.968 1639.14 991.568C1634.14 998.568 1646.81 1008.07 1652.64 1010.57C1658.64 1006.9 1669.64 997.968 1665.64 991.568Z" fill="#B09DF5" stroke="#42315C" stroke-width="2" stroke-linecap="round"/>
<path d="M384.644 564.568C380.644 558.168 374.31 561.901 371.644 564.568C367.81 560.735 362.144 558.968 358.144 564.568C353.144 571.568 365.81 581.068 371.644 583.568C377.644 579.901 388.644 570.968 384.644 564.568Z" fill="#B09DF5" stroke="#42315C" stroke-width="2" stroke-linecap="round"/>
<path d="M380.712 346.779H202.616C187.245 346.779 186.715 318.126 207.917 322.901C213.747 287.35 245.55 296.901 255.091 312.819C258.271 306.452 273.642 302.738 281.593 310.166C281.593 264.279 358.493 277.279 354.209 305.921C372.231 303.799 377.885 316.711 378.591 322.901C386.012 321.84 394.493 326.085 394.493 336.167C394.493 346.249 386.542 346.779 380.712 346.779Z" fill="white" stroke="#42315C" stroke-width="2" stroke-linecap="round"/>
<path d="M279.493 369.5H111.493C96.9927 369.5 96.4929 342.5 116.493 347C121.993 313.5 151.993 322.5 160.993 337.5C163.993 331.5 178.493 328 185.993 335C192.993 275.5 258.993 309.5 254.493 331C271.493 329 276.826 341.166 277.493 347C284.493 346 292.493 350 292.493 359.5C292.493 369 284.993 369.5 279.493 369.5Z" fill="white" stroke="#42315C" stroke-width="2" stroke-linecap="round"/>
<circle cx="241.993" cy="289.5" r="32.5" fill="#DDBEF5" stroke="#42315C" stroke-width="2"/>
<path d="M212.366 276.986C212.409 276.99 212.451 276.995 212.493 277C212.447 277 212.404 276.995 212.366 276.986C195.404 275.035 177.64 282.036 237.993 296.5C298.492 311 291.993 302 273.993 296.5C274.326 295.667 274.493 292.246 274.493 290.5C297.493 294.5 344.082 326.007 236.493 304C170.493 290.5 161.993 262.5 213.993 272C213.032 273.602 211.424 276.744 212.366 276.986Z" fill="white"/>
<path d="M212.493 277C195.493 275 177.49 282 237.993 296.5C298.492 311 291.993 302 273.993 296.5C274.326 295.667 274.493 292.246 274.493 290.5C297.493 294.5 344.082 326.007 236.493 304C170.493 290.5 161.993 262.5 213.993 272C212.993 273.667 211.293 277 212.493 277Z" stroke="#42315C" stroke-width="2" stroke-linecap="round"/>
<path d="M1975.49 880.171H1729.92C1708.73 880.171 1708 840.662 1737.23 847.247C1745.27 798.227 1789.12 811.396 1802.28 833.346C1806.66 824.566 1827.86 819.444 1838.82 829.687C1838.82 766.416 1944.85 784.341 1938.95 823.834C1963.8 820.907 1971.59 838.711 1972.57 847.247C1982.8 845.784 1994.49 851.637 1994.49 865.538C1994.49 879.44 1983.53 880.171 1975.49 880.171Z" fill="white" stroke="#42315C" stroke-width="2" stroke-linecap="round"/>
<path d="M1835.92 911.5H1604.28C1584.28 911.5 1583.59 874.271 1611.17 880.476C1618.75 834.284 1660.12 846.694 1672.53 867.377C1676.67 859.104 1696.66 854.278 1707 863.929C1716.65 781.888 1807.66 828.769 1801.45 858.414C1824.89 855.656 1832.25 872.432 1833.17 880.476C1842.82 879.097 1853.85 884.612 1853.85 897.711C1853.85 910.81 1843.51 911.5 1835.92 911.5Z" fill="white" stroke="#42315C" stroke-width="2" stroke-linecap="round"/>
<circle cx="1784.22" cy="801.192" r="45.1917" fill="#DDBEF5" stroke="#42315C" stroke-width="2"/>
<path d="M1743.37 783.936C1743.43 783.943 1743.48 783.95 1743.54 783.956C1743.48 783.956 1743.42 783.949 1743.37 783.936C1719.98 781.246 1695.48 790.9 1778.7 810.844C1862.12 830.837 1853.16 818.427 1828.34 810.844C1828.8 809.695 1829.03 804.978 1829.03 802.571C1860.74 808.086 1924.98 851.53 1776.63 821.185C1685.63 802.571 1673.91 763.963 1745.61 777.062C1744.28 779.271 1742.07 783.603 1743.37 783.936Z" fill="white"/>
<path d="M1743.54 783.956C1720.1 781.198 1695.28 790.85 1778.7 810.844C1862.12 830.837 1853.16 818.427 1828.34 810.844C1828.8 809.695 1829.03 804.978 1829.03 802.571C1860.74 808.086 1924.98 851.53 1776.63 821.185C1685.63 802.571 1673.91 763.963 1745.61 777.062C1744.23 779.36 1741.89 783.956 1743.54 783.956Z" stroke="#42315C" stroke-width="2" stroke-linecap="round"/>
<path d="M427.493 1031.84H259.493C244.993 1031.84 244.493 1004.84 264.493 1009.34C269.993 975.845 299.993 984.845 308.993 999.845C311.993 993.845 326.493 990.345 333.993 997.345C340.993 937.845 406.993 971.845 402.493 993.345C419.493 991.345 424.826 1003.51 425.493 1009.34C432.493 1008.34 440.493 1012.34 440.493 1021.84C440.493 1031.34 432.993 1031.84 427.493 1031.84Z" fill="white" stroke="#42315C" stroke-width="2" stroke-linecap="round"/>
<path d="M609.041 1053H351.11C328.848 1053 328.08 1011.38 358.786 1018.32C367.23 966.676 413.289 980.549 427.107 1003.67C431.713 994.423 453.975 989.028 465.49 999.818C465.49 933.165 576.862 952.048 570.658 993.652C596.759 990.569 604.947 1009.32 605.97 1018.32C616.718 1016.77 629 1022.94 629 1037.58C629 1052.23 617.485 1053 609.041 1053Z" fill="white" stroke="#42315C" stroke-width="2" stroke-linecap="round"/>
<path d="M316.5 221C312.9 229.8 307.5 232.5 305 233C308.167 233.333 314.5 237.5 316.5 243.5C316.5 239.1 323.667 234.333 327 233C324.833 232.333 319.3 228.6 316.5 221Z" fill="white" stroke="#42315C" stroke-width="2" stroke-linecap="round" stroke-linejoin="round"/>
<path d="M440.5 945C436.9 953.8 431.5 956.5 429 957C432.167 957.333 438.5 961.5 440.5 967.5C440.5 963.1 447.667 958.333 451 957C448.833 956.333 443.3 952.6 440.5 945Z" fill="white" stroke="#42315C" stroke-width="2" stroke-linecap="round" stroke-linejoin="round"/>
<path d="M552.5 1042C548.9 1050.8 543.5 1053.5 541 1054C544.167 1054.33 550.5 1058.5 552.5 1064.5C552.5 1060.1 559.667 1055.33 563 1054C560.833 1053.33 555.3 1049.6 552.5 1042Z" fill="white" stroke="#42315C" stroke-width="2" stroke-linecap="round" stroke-linejoin="round"/>
<path d="M202.5 336C198.9 344.8 193.5 347.5 191 348C194.167 348.333 200.5 352.5 202.5 358.5C202.5 354.1 209.667 349.333 213 348C210.833 347.333 205.3 343.6 202.5 336Z" fill="white" stroke="#42315C" stroke-width="2" stroke-linecap="round" stroke-linejoin="round"/>
<path d="M557.727 714C552.491 726.907 544.636 730.867 541 731.6C545.606 732.089 554.818 738.2 557.727 747C557.727 740.547 568.152 733.556 573 731.6C569.848 730.622 561.8 725.147 557.727 714Z" fill="white" stroke="#42315C" stroke-width="2" stroke-linecap="round" stroke-linejoin="round"/>
<path d="M1306.82 580C1300.93 594.471 1292.09 598.911 1288 599.733C1293.18 600.281 1303.55 607.133 1306.82 617C1306.82 609.764 1318.55 601.926 1324 599.733C1320.45 598.637 1311.4 592.498 1306.82 580Z" fill="white" stroke="#42315C" stroke-width="2" stroke-linecap="round" stroke-linejoin="round"/>
<path d="M926.5 922C922.9 930.8 917.5 933.5 915 934C918.167 934.333 924.5 938.5 926.5 944.5C926.5 940.1 933.667 935.333 937 934C934.833 933.333 929.3 929.6 926.5 922Z" fill="white" stroke="#42315C" stroke-width="2" stroke-linecap="round" stroke-linejoin="round"/>
<path d="M1031.5 323C1027.9 331.8 1022.5 334.5 1020 335C1023.17 335.333 1029.5 339.5 1031.5 345.5C1031.5 341.1 1038.67 336.333 1042 335C1039.83 334.333 1034.3 330.6 1031.5 323Z" fill="white" stroke="#42315C" stroke-width="2" stroke-linecap="round" stroke-linejoin="round"/>
<path d="M916.5 46C912.9 54.8 907.5 57.5 905 58C908.167 58.3333 914.5 62.5 916.5 68.5C916.5 64.1 923.667 59.3333 927 58C924.833 57.3333 919.3 53.6 916.5 46Z" fill="white" stroke="#42315C" stroke-width="2" stroke-linecap="round" stroke-linejoin="round"/>
<path d="M793.5 578C789.9 586.8 784.5 589.5 782 590C785.167 590.333 791.5 594.5 793.5 600.5C793.5 596.1 800.667 591.333 804 590C801.833 589.333 796.3 585.6 793.5 578Z" fill="white" stroke="#42315C" stroke-width="2" stroke-linecap="round" stroke-linejoin="round"/>
<path d="M1000.5 620C996.9 628.8 991.5 631.5 989 632C992.167 632.333 998.5 636.5 1000.5 642.5C1000.5 638.1 1007.67 633.333 1011 632C1008.83 631.333 1003.3 627.6 1000.5 620Z" fill="white" stroke="#42315C" stroke-width="2" stroke-linecap="round" stroke-linejoin="round"/>
<circle cx="115" cy="501" r="7" stroke="#42315C" stroke-width="2"/>
<circle cx="1739" cy="597" r="7" stroke="#42315C" stroke-width="2"/>
<path d="M1274.5 830.163L1260 838.163L1274.5 848.163V856.663C1274.5 861.863 1279.5 864.163 1282 864.663C1304.83 864.996 1352 865.463 1358 864.663C1364 863.863 1366.17 858.996 1366.5 856.663C1366.83 845.829 1367 824.163 1366.5 819.663C1366 815.163 1360.5 813.663 1358 813.663C1335 813.163 1287.6 812.463 1282 813.663C1276.4 814.863 1274.67 819.496 1274.5 821.663V830.163Z" fill="#DDBEF5" stroke="#42315C" stroke-width="2" stroke-linecap="round" stroke-linejoin="round"/>
<path d="M1398.47 891.14L1413 898.663L1398.47 908.068V916.061C1398.47 920.951 1393.47 923.114 1390.96 923.585C1368.09 923.898 1320.84 924.337 1314.83 923.585C1308.82 922.832 1306.65 918.256 1306.32 916.061C1305.98 905.873 1305.82 885.498 1306.32 881.266C1306.82 877.034 1312.33 875.623 1314.83 875.623C1337.87 875.153 1385.35 874.495 1390.96 875.623C1396.57 876.752 1398.31 881.109 1398.47 883.146V891.14Z" fill="#B39EED" stroke="#42315C" stroke-width="2" stroke-linecap="round" stroke-linejoin="round"/>
<path d="M1333.64 831.568C1329.64 825.168 1323.31 828.901 1320.64 831.568C1316.81 827.735 1311.14 825.968 1307.14 831.568C1302.14 838.568 1314.81 848.068 1320.64 850.568C1326.64 846.901 1337.64 837.968 1333.64 831.568Z" fill="white" stroke="#42315C" stroke-width="2" stroke-linecap="round"/>
<circle cx="1333" cy="900" r="4.5" fill="white" stroke="#42315C"/>
<circle cx="1353" cy="900" r="4.5" fill="white" stroke="#42315C"/>
<circle cx="1372" cy="900" r="4.5" fill="white" stroke="#42315C"/>
</g>
<defs>
<clipPath id="clip0_2_15">
<rect width="1920" height="1080" fill="white"/>
</clipPath>
</defs>
</svg>
